<?xml version="1.0" encoding="UTF-8"?>
<!DOCTYPE svg PUBLIC "-//W3C//DTD SVG 1.1//EN" "http://www.w3.org/Graphics/SVG/1.1/DTD/svg11.dtd">
<!-- Creator: CorelDRAW X7 -->
<svg xmlns="http://www.w3.org/2000/svg" xml:space="preserve" width="64.911mm" height="39.511mm" version="1.1" style="shape-rendering:geometricPrecision; text-rendering:geometricPrecision; image-rendering:optimizeQuality; fill-rule:evenodd; clip-rule:evenodd"
viewBox="0 0 6491 3951"
 xmlns:xlink="http://www.w3.org/1999/xlink">
 <defs>
  <style type="text/css">
   <![CDATA[
    .str1 {stroke:white;stroke-width:141.11;stroke-linecap:square;stroke-linejoin:round}
    .str0 {stroke:white;stroke-width:35.28;stroke-linecap:square;stroke-linejoin:round}
    .fil0 {fill:none}
   ]]>
  </style>
 </defs>
 <g id="Слой_x0020_1">
  <metadata id="CorelCorpID_0Corel-Layer"/>
  <g id="_792716960">
   <path class="fil0 str0" d="M4154 3143c14,-76 3,-137 -25,-137 -28,0 -62,61 -76,137 -14,75 -2,136 25,136 28,0 62,-61 76,-136"/>
   <path class="fil0 str0" d="M5970 722c0,0 -329,-353 -429,-421 -99,-69 -151,-147 -605,-174 -455,-28 -1099,-29 -1362,0 -379,40 -539,129 -656,198 -117,69 -520,398 -656,522 -136,123 -268,303 -379,372 -110,69 -393,182 -630,273 -237,91 -574,290 -732,397 -158,107 -190,148 -227,224 -36,75 -50,198 -50,198"/>
   <line class="fil0 str0" x1="244" y1="2311" x2="168" y2= "2411" />
   <path class="fil0 str0" d="M168 2411c0,0 -35,205 -25,298 10,92 38,237 163,329 82,61 357,207 1149,415 553,146 1166,249 1361,256 167,6 495,-111 682,-157 115,-28 165,-57 177,-124 11,-66 75,-416 126,-596 50,-178 77,-277 177,-372 98,-95 142,-197 252,-223 109,-27 181,45 202,124 19,78 25,223 25,223"/>
   <polyline class="fil0 str0" points="4457,2584 4633,2684 4558,2758 "/>
   <path class="fil0 str0" d="M4558 2758c0,0 34,119 50,99 16,-19 1194,-801 1194,-801"/>
   <polyline class="fil0 str0" points="5802,2056 5802,1955 5895,1864 "/>
   <path class="fil0 str0" d="M5895 1864c0,0 -50,-185 0,-248 49,-62 52,-192 126,-223 73,-31 124,-32 151,50 27,81 43,266 43,266 0,0 96,-131 142,-215 46,-83 22,-199 22,-199"/>
   <line class="fil0 str0" x1="6379" y1="1295" x2="6324" y2= "1244" />
   <path class="fil0 str0" d="M6324 1244c0,0 3,-229 -27,-370 -39,-184 -201,-176 -201,-176"/>
   <line class="fil0 str0" x1="6096" y1="698" x2="5970" y2= "722" />
   <path class="fil0 str0" d="M4204 1467c105,13 177,3 228,-99 49,-103 173,-597 201,-745 29,-147 -55,-163 -126,-174 -70,-10 -1319,-92 -1438,-74 -80,12 -167,45 -215,79 -49,33 -212,159 -365,293 -153,135 -294,277 -341,327 -75,81 -86,133 -44,147 82,30 299,44 742,96 315,37 1254,138 1358,150"/>
   <path class="fil0 str0" d="M4305 1591c0,0 -66,112 -151,149 -85,38 -732,388 -959,546 -226,159 -227,249 -227,249"/>
   <path class="fil0 str0" d="M5491 2271c0,0 40,-408 25,-655 -14,-247 -101,-472 -101,-472 0,0 -48,-304 -100,-471 -53,-168 -203,-372 -203,-372 0,0 -119,40 -176,74 -57,34 -126,59 -151,124 -26,65 -227,993 -227,993 0,0 47,102 75,174 29,72 25,1119 25,1119"/>
   <line class="fil0 str0" x1="5137" y1="291" x2="5359" y2= "254" />
   <path class="fil0 str0" d="M5359 254c0,0 203,126 334,320 69,102 202,322 202,322"/>
   <polyline class="fil0 str0" points="5895,896 5970,1020 5995,1393 "/>
   <path class="fil0 str0" d="M3750 2659c0,0 -348,152 -555,198 -206,47 -369,53 -479,50 -110,-3 -981,-137 -1445,-239 -570,-125 -656,-193 -850,-232 -163,-34 -177,-125 -177,-125"/>
   <path class="fil0 str0" d="M3271 3056c0,0 -227,72 -378,75 -152,2 -328,-50 -328,-50"/>
   <polyline class="fil0 str0" points="2565,3081 2489,3131 2540,3205 "/>
   <path class="fil0 str0" d="M2540 3205c0,0 204,53 353,50 148,-3 277,-75 277,-75"/>
   <line class="fil0 str0" x1="3170" y1="3180" x2="3271" y2= "3056" />
   <path class="fil0 str0" d="M3271 2460c0,0 -130,51 -277,75 -95,15 -192,21 -353,0 -162,-22 -290,-37 -429,-25 -166,13 -245,68 -278,124 -33,56 -33,160 -33,160 0,0 398,89 773,110 262,15 420,-22 547,-47 92,-18 165,-56 165,-56 0,0 30,-81 60,-229 33,-160 -175,-112 -175,-112"/>
   <path class="fil0 str0" d="M723 2510c0,0 2,-98 -25,-199 -27,-101 -91,-163 -202,-198 -110,-35 -176,-50 -176,-50"/>
   <polyline class="fil0 str0" points="150,2501 294,2609 294,2733 143,2634 "/>
   <path class="fil0 str0" d="M4053 2411c0,0 91,-9 177,25 60,23 133,148 151,297 18,149 16,456 -50,646 -67,190 -157,408 -303,447 -147,38 -338,15 -404,-25 -65,-40 -124,-61 -151,-124 -27,-64 -25,-99 -25,-99"/>
   <path class="fil0 str0" d="M4558 2857c0,0 25,216 -26,274 -51,57 -151,74 -151,74"/>
   <polyline class="fil0 str0" points="6223,1740 6223,1815 6147,1889 "/>
   <path class="fil0 str0" d="M6021 1492c0,0 88,10 101,149 6,73 12,304 0,422 -13,118 -90,364 -177,373 -121,11 -202,0 -202,0"/>
   <polyline class="fil0 str0" points="5743,2436 5642,2361 5592,2212 "/>
   <path class="fil0 str0" d="M4266 3155c38,-232 -3,-432 -93,-446 -90,-13 -193,164 -232,397 -38,232 3,432 93,446 90,14 193,-164 232,-397"/>
   <path class="fil0 str0" d="M6040 1980c16,-151 -69,-280 -108,-289 -38,-9 -83,106 -99,257 -16,150 1,279 40,288 38,9 150,-106 167,-256"/>
   <path class="fil0 str0" d="M5870 896c0,0 -58,73 -127,100 -69,26 -538,254 -538,254"/>
   <path class="fil0 str0" d="M5062 1095c0,0 -120,-13 -227,0 -107,13 -164,50 -177,124 -9,58 13,126 59,157 12,9 94,71 295,41 102,-14 164,-54 176,-148 13,-95 -126,-174 -126,-174"/>
   <line class="fil0 str0" x1="4835" y1="1417" x2="4558" y2= "1517" />
   <path class="fil0 str0" d="M2186 871c0,0 -94,-43 -151,0 -57,44 -101,125 -101,125"/>
   <line class="fil0 str0" x1="1934" y1="996" x2="1984" y2= "1095" />
   <path class="fil0 str1" d="M2232 859c12,5 17,0 30,-12 136,-124 539,-453 656,-522 117,-69 277,-158 656,-198 263,-29 907,-28 1362,0 454,27 506,105 605,174 100,68 429,421 429,421"/>
   <line class="fil0 str1" x1="5970" y1="722" x2="6096" y2= "698" />
   <path class="fil0 str1" d="M6096 698c0,0 162,-8 201,176 30,141 27,370 27,370"/>
   <line class="fil0 str1" x1="6324" y1="1244" x2="6379" y2= "1295" />
   <path class="fil0 str1" d="M6379 1295c0,0 24,116 -22,199 -46,84 -142,215 -142,215 0,0 40,44 13,81 -43,62 -97,3 -99,57 -4,78 -2,160 -7,216 -13,118 -90,364 -177,373 -121,11 -202,0 -202,0"/>
   <polyline class="fil0 str1" points="5743,2436 5642,2361 5592,2212 5608,2184 "/>
   <path class="fil0 str1" d="M5608 2184c-334,223 -988,659 -1000,673 -7,9 -17,-8 -26,-31 0,0 1,247 -50,305 -51,57 -164,91 -164,91 -9,57 -21,110 -37,157 -67,190 -157,408 -303,447 -147,38 -338,15 -404,-25 -65,-40 -124,-61 -151,-124 -27,-64 -25,-99 -25,-99"/>
   <line class="fil0 str1" x1="3448" y1="3578" x2="3455" y2= "3564" />
   <path class="fil0 str1" d="M3455 3564c-191,51 -484,151 -639,145 -195,-7 -808,-110 -1361,-256 -792,-208 -1067,-354 -1149,-415 -125,-92 -153,-237 -163,-329 -10,-93 25,-298 25,-298"/>
   <line class="fil0 str1" x1="168" y1="2411" x2="244" y2= "2311" />
   <path class="fil0 str1" d="M244 2311c0,0 14,-123 50,-198 37,-76 69,-117 227,-224 158,-107 495,-306 732,-397 237,-91 520,-204 630,-273 30,-18 60,-44 92,-75"/>
   <line class="fil0 str1" x1="1975" y1="1144" x2="1934" y2= "996" />
   <path class="fil0 str1" d="M1934 996c0,0 44,-81 101,-125 57,-43 197,-12 197,-12"/>
  </g>
 </g>
</svg>
