<?xml version="1.0" encoding="UTF-8"?>
<!DOCTYPE svg PUBLIC "-//W3C//DTD SVG 1.1//EN" "http://www.w3.org/Graphics/SVG/1.1/DTD/svg11.dtd">
<!-- Creator: CorelDRAW X7 -->
<svg xmlns="http://www.w3.org/2000/svg" xml:space="preserve" width="35.9832mm" height="27.5166mm" version="1.1" style="shape-rendering:geometricPrecision; text-rendering:geometricPrecision; image-rendering:optimizeQuality; fill-rule:evenodd; clip-rule:evenodd"
viewBox="0 0 3598 2752"
 xmlns:xlink="http://www.w3.org/1999/xlink">
 <defs>
  <style type="text/css">
   <![CDATA[
    .str1 {stroke:white;stroke-width:70.56;stroke-linecap:square;stroke-linejoin:round}
    .str0 {stroke:white;stroke-width:35.28;stroke-linecap:square;stroke-linejoin:round}
    .fil0 {fill:none}
   ]]>
  </style>
 </defs>
 <g id="Слой_x0020_1">
  <metadata id="CorelCorpID_0Corel-Layer"/>
  <g id="_810638208">
   <g>
    <path class="fil0 str0" d="M3525 649c-29,-130 -145,-124 -145,-124"/>
    <line class="fil0 str0" x1="3380" y1="525" x2="3289" y2= "542" />
    <path class="fil0 str0" d="M3289 542c0,0 -197,-273 -269,-322 -72,-48 -201,-101 -456,-101 -329,0 -629,-11 -889,-11 -276,0 -508,104 -592,153 -85,49 -376,282 -474,369 -99,88 -194,215 -274,264 -80,48 -128,90 -300,154"/>
    <path class="fil0 str0" d="M1973 1069c76,9 128,2 165,-70 36,-73 125,-423 146,-527 20,-104 -8,-161 -59,-168 -51,-7 -908,-20 -994,-8 -58,9 -121,32 -156,56 -35,24 -153,113 -263,208 -111,95 -213,195 -247,231 -54,57 -62,94 -32,104 60,21 139,31 459,68 227,26 906,97 981,106"/>
    <path class="fil0 str0" d="M2046 1196c0,0 -48,79 -109,105 -61,27 -529,353 -693,465"/>
    <path class="fil0 str0" d="M3216 630c0,0 -97,74 -220,142 -127,70 -260,143 -260,143"/>
    <path class="fil0 str0" d="M2632 806c0,0 -86,-9 -164,0 -77,9 -118,35 -127,88 -7,41 9,88 42,111 9,6 68,49 213,29 74,-11 119,-38 128,-105 9,-67 -92,-123 -92,-123"/>
    <line class="fil0 str0" x1="2468" y1="1034" x2="2268" y2= "1104" />
   </g>
   <path class="fil0 str0" d="M2974 1620c0,0 -14,-278 -25,-453 -10,-175 -61,-326 -61,-326 0,0 -35,-215 -73,-334 -38,-119 -146,-264 -146,-264 0,0 -86,29 -128,53 -41,25 -91,42 -109,88 -19,46 -164,703 -164,703 0,0 34,72 55,123 20,51 9,815 9,815 0,0 200,-97 360,-199 183,-116 282,-206 282,-206"/>
   <line class="fil0 str0" x1="2686" y1="237" x2="2825" y2= "212" />
   <path class="fil0 str0" d="M2825 212c0,0 169,88 263,225 51,72 146,228 146,228"/>
   <polyline class="fil0 str0" points="3234,665 3289,753 3338,1276 "/>
   <path class="fil0 str0" d="M3338 1276c0,0 -61,87 -144,172 -83,85 -220,172 -220,172"/>
   <line class="fil0 str0" x1="2974" y1="1620" x2="2686" y2= "237" />
  </g>
  <path class="fil0 str1" d="M995 316c0,0 261,-242 862,-242 273,0 489,22 744,36 140,7 287,49 287,49 0,0 -82,7 -203,39 -216,56 -261,200 -261,200"/>
  <line class="fil0 str1" x1="2424" y1="398" x2="2218" y2= "339" />
  <path class="fil0 str1" d="M2218 339c0,0 -538,-56 -1041,-57 -100,0 -182,34 -182,34"/>
  <g id="_810636288">
   <path class="fil0 str0" d="M1229 2604c95,4 280,-63 385,-89 66,-16 93,-32 100,-70 7,-37 43,-236 71,-337 29,-101 44,-157 100,-211 56,-53 81,-112 143,-126 61,-15 102,26 114,70 11,44 14,126 14,126"/>
   <polyline class="fil0 str0" points="2156,1967 2256,2024 2213,2066 "/>
   <path class="fil0 str0" d="M2213 2066c0,0 19,67 29,56 0,0 0,-1 0,-1 -1,-1 -50,43 123,-72"/>
   <path class="fil0 str0" d="M1757 2009c0,0 -197,86 -314,113 -117,26 -208,30 -270,28 -62,-2 -555,-77 -817,-135"/>
   <path class="fil0 str0" d="M1486 2234c0,0 -128,41 -214,42 -85,2 -185,-27 -185,-27"/>
   <polyline class="fil0 str0" points="1087,2249 1044,2276 1073,2319 "/>
   <path class="fil0 str0" d="M1073 2319c0,0 116,30 199,28 84,-2 157,-42 157,-42"/>
   <line class="fil0 str0" x1="1429" y1="2305" x2="1486" y2= "2234" />
   <path class="fil0 str0" d="M1486 1897c0,0 -73,29 -157,42 -53,9 -108,13 -199,0 -92,-12 -164,-20 -242,-14 -94,8 -139,39 -157,71 -19,31 -19,90 -19,90 0,0 225,51 437,62 148,9 237,-12 309,-26 52,-10 93,-32 93,-32 0,0 17,-46 34,-130 18,-90 -99,-63 -99,-63"/>
   <path class="fil0 str0" d="M1928 1869c0,0 51,-5 100,14 34,13 75,84 85,169 10,84 9,258 -28,365 -38,107 -89,231 -171,253 -83,22 -191,9 -228,-14 -37,-23 -71,-35 -86,-71 -15,-35 -14,-56 -14,-56"/>
   <path class="fil0 str0" d="M2048 2291c22,-132 -2,-245 -52,-253 -51,-8 -110,93 -131,224 -22,132 2,245 52,253 51,8 109,-93 131,-224"/>
  </g>
 </g>
</svg>
