<?xml version="1.0" encoding="UTF-8"?>
<!DOCTYPE svg PUBLIC "-//W3C//DTD SVG 1.1//EN" "http://www.w3.org/Graphics/SVG/1.1/DTD/svg11.dtd">
<!-- Creator: CorelDRAW X7 -->
<svg xmlns="http://www.w3.org/2000/svg" xml:space="preserve" width="36.336mm" height="36.336mm" version="1.1" style="shape-rendering:geometricPrecision; text-rendering:geometricPrecision; image-rendering:optimizeQuality; fill-rule:evenodd; clip-rule:evenodd"
viewBox="0 0 3634 3634"
 xmlns:xlink="http://www.w3.org/1999/xlink">
 <defs>
  <style type="text/css">
   <![CDATA[
    .str1 {stroke:white;stroke-width:70.56;stroke-linecap:square;stroke-linejoin:round}
    .str0 {stroke:white;stroke-width:35.28;stroke-linecap:square;stroke-linejoin:round}
    .fil0 {fill:none}
   ]]>
  </style>
 </defs>
 <g id="Слой_x0020_1">
  <metadata id="CorelCorpID_0Corel-Layer"/>
  <g id="_810873936">
   <path class="fil0 str0" d="M1905 2117c0,0 -165,-80 -282,-212 -118,-132 -109,-298 -35,-459 73,-160 243,-358 282,-529 38,-171 73,-391 211,-388 139,3 635,177 635,177"/>
   <line class="fil0 str0" x1="2716" y1="706" x2="2822" y2= "635" />
   <path class="fil0 str0" d="M2822 635c0,0 117,-29 177,71 59,99 108,214 70,423 -37,209 -96,450 -106,670 -9,221 -70,353 -70,353 0,0 -232,50 -375,244 -67,92 -354,605 -437,673 -82,68 -95,124 -176,141 -81,18 -147,9 -212,0 -64,-8 -357,-173 -529,-247 -172,-73 -243,-128 -282,-247 -39,-118 -136,-247 -35,-423 100,-176 153,-160 247,-212 119,-65 386,4 529,0 142,-3 282,36 282,36"/>
   <path class="fil0 str0" d="M2181 532c0,0 -78,-247 6,-356 57,-74 80,-106 177,-105 84,0 227,28 317,57 13,4 25,9 35,13 82,34 79,104 106,212 28,108 0,282 0,282"/>
   <path class="fil0 str0" d="M2707 129c0,0 -156,33 -96,224 46,149 105,317 105,317"/>
   <path class="fil0 str0" d="M2117 564c0,0 -119,310 -141,600"/>
   <line class="fil0 str0" x1="1976" y1="1164" x2="1972" y2= "1213" />
   <path class="fil0 str0" d="M1972 1213c-23,254 -57,357 -67,480 -10,132 0,424 0,424"/>
   <path class="fil0 str0" d="M2011 1199c0,0 109,36 247,71 137,35 317,71 317,71"/>
   <line class="fil0 str0" x1="1552" y1="2258" x2="2081" y2= "2505" />
   <path class="fil0 str0" d="M2928 2187c0,0 64,36 71,71 7,34 -89,204 -106,317 -17,114 -20,192 -71,247 -50,55 -149,122 -404,236 -254,114 -370,159 -488,185 -117,26 -272,-33 -272,-33"/>
   <line class="fil0 str0" x1="1658" y1="3210" x2="1517" y2= "3034" />
   <path class="fil0 str0" d="M1517 3034c0,0 40,-228 106,-282 65,-54 227,-154 353,-177 125,-22 239,-90 341,-120 102,-30 195,-78 195,-78 0,0 -110,89 -184,163 -121,123 -273,112 -381,175 -108,63 -289,213 -289,213 0,0 -360,-77 -564,-176 -204,-100 -283,-247 -283,-247 0,0 45,-109 106,-141 62,-33 88,-59 212,-71 124,-12 350,-46 494,-71 143,-24 282,-70 282,-70"/>
   <line class="fil0 str0" x1="1905" y1="2152" x2="2480" y2= "2390" />
   <path class="fil0 str0" d="M2480 2390c0,0 -30,-150 -26,-241 6,-162 -13,-311 86,-632 99,-321 245,-822 245,-822 0,0 92,50 108,152 15,101 5,257 -71,458 -76,202 -185,402 -211,565 -27,163 35,352 35,352"/>
  </g>
  <path class="fil0 str1" d="M2944 2410c232,76 445,173 497,190 147,48 162,164 40,234 -122,69 -1188,565 -1312,634 -124,70 -175,133 -318,67 0,0 -1591,-686 -1708,-735 -117,-49 -83,-191 39,-234 51,-18 364,-142 635,-233"/>
 </g>
</svg>
