<?xml version="1.0" encoding="UTF-8"?>
<!DOCTYPE svg PUBLIC "-//W3C//DTD SVG 1.1//EN" "http://www.w3.org/Graphics/SVG/1.1/DTD/svg11.dtd">
<!-- Creator: CorelDRAW X7 -->
<svg xmlns="http://www.w3.org/2000/svg" xml:space="preserve" width="21.8722mm" height="21.1666mm" version="1.1" style="shape-rendering:geometricPrecision; text-rendering:geometricPrecision; image-rendering:optimizeQuality; fill-rule:evenodd; clip-rule:evenodd"
viewBox="0 0 2187 2117"
 xmlns:xlink="http://www.w3.org/1999/xlink">
 <defs>
  <style type="text/css">
   <![CDATA[
    .fil0 {fill:#E3B81F}
    .fil1 {fill:white}
   ]]>
  </style>
 </defs>
 <g id="Слой_x0020_1">
  <metadata id="CorelCorpID_0Corel-Layer"/>
  <g id="_809082032">
   <path class="fil0" d="M1177 10l965 965c37,36 37,95 0,132l-965 965c-36,36 -95,36 -131,0l-966 -965c-36,-37 -36,-96 0,-132l966 -965c36,-37 95,-37 131,0z"/>
   <path class="fil1" d="M600 1270l18 0c5,0 9,1 11,3 3,3 5,7 5,13 0,5 1,12 1,19 0,7 -1,13 -2,18 -1,5 -2,9 -3,11 -2,3 -3,4 -6,5 -1,2 -3,2 -6,2l-18 0 0 -71zm0 -71l0 0 16 0c5,0 9,1 11,2 2,1 5,3 6,6 1,3 2,7 2,10 0,4 -1,8 -2,11 -1,2 -4,4 -6,5 -2,1 -6,2 -10,2l-17 0 0 -36zm18 177l0 0c9,0 16,-1 23,-5 6,-2 11,-7 15,-13 4,-5 7,-14 10,-25 3,-10 4,-22 4,-34 0,-15 -3,-28 -9,-40 -7,-11 -15,-19 -27,-24 13,-3 21,-8 27,-14 6,-6 9,-12 9,-18 0,-7 -2,-13 -6,-20 -4,-6 -9,-11 -16,-14 -7,-3 -16,-5 -27,-5l-57 0 0 212 54 0z"/>
   <polygon class="fil1" points="741,1376 789,1376 847,1209 847,1376 882,1376 882,1164 834,1164 776,1332 776,1164 741,1164 "/>
   <path class="fil1" d="M1058 1341l-35 0 0 -68 0 -64 0 -10 35 0 0 142zm-70 -148l0 0 0 148 -36 0 0 70 36 0 0 -35 106 0 0 35 35 0 0 -70 -35 0 0 -177 -106 0 0 29z"/>
   <polygon class="fil1" points="1341,1376 1341,1341 1235,1341 1235,1270 1341,1270 1341,1235 1235,1235 1235,1199 1341,1199 1341,1164 1199,1164 1199,1376 "/>
   <path class="fil1" d="M1497 1216c10,-11 23,-17 38,-17 9,0 19,4 27,9 9,6 15,15 19,25 4,11 6,23 6,37 0,23 -4,40 -14,52 -10,13 -23,19 -38,19 -16,0 -29,-6 -39,-19 -9,-12 -14,-28 -14,-49 0,-27 5,-45 15,-57zm-40 108l0 0c6,16 17,29 31,38 13,9 29,14 47,14 15,0 31,-4 44,-13 14,-8 24,-20 32,-37 8,-16 12,-34 12,-55 0,-21 -4,-39 -11,-56 -8,-16 -18,-28 -31,-37 -14,-9 -29,-14 -46,-14 -27,0 -48,10 -64,29 -17,19 -25,46 -25,80 0,18 4,35 11,51z"/>
  </g>
  <g id="_809076944">
   <path class="fil1" d="M847 741c0,-137 110,-247 247,-247 136,0 247,110 247,247 0,136 -111,247 -247,247 -137,0 -247,-111 -247,-247z"/>
   <polygon class="fil0" points="1058,600 1058,882 1235,741 "/>
  </g>
 </g>
</svg>
