<?xml version="1.0" encoding="UTF-8"?>
<!DOCTYPE svg PUBLIC "-//W3C//DTD SVG 1.1//EN" "http://www.w3.org/Graphics/SVG/1.1/DTD/svg11.dtd">
<!-- Creator: CorelDRAW X7 -->
<svg xmlns="http://www.w3.org/2000/svg" xml:space="preserve" width="89.2526mm" height="54.6804mm" version="1.1" style="shape-rendering:geometricPrecision; text-rendering:geometricPrecision; image-rendering:optimizeQuality; fill-rule:evenodd; clip-rule:evenodd"
viewBox="0 0 8925 5468"
 xmlns:xlink="http://www.w3.org/1999/xlink">
 <defs>
  <style type="text/css">
   <![CDATA[
    .str1 {stroke:#9AA1AA;stroke-width:70.56;stroke-linecap:square;stroke-linejoin:round}
    .str0 {stroke:#9AA1AA;stroke-width:35.28;stroke-linecap:square;stroke-linejoin:round}
    .fil1 {fill:none}
    .fil0 {fill:#E9C54D}
   ]]>
  </style>
 </defs>
 <g id="Слой_x0020_1">
  <metadata id="CorelCorpID_0Corel-Layer"/>
  <g id="_806996896">
   <path class="fil0" d="M1348 325c0,0 142,-167 398,-204 306,-46 1056,-52 1497,-46 262,3 916,24 1131,66 481,93 753,365 753,365 0,0 -221,-47 -420,-56 -199,-9 -910,33 -1225,45 -315,13 -647,34 -863,102 -75,24 -249,170 -249,170 0,0 -6,-133 -77,-203 -71,-69 -247,-164 -445,-217 -216,-56 -500,-22 -500,-22z"/>
   <g>
    <path class="fil1 str0" d="M6315 3492c0,0 476,-97 882,-176 405,-79 740,-176 740,-176"/>
    <path class="fil1 str0" d="M6385 3598c0,0 406,-61 812,-141 405,-79 705,-176 705,-176"/>
    <path class="fil1 str0" d="M6456 3704c0,0 326,-43 722,-130 472,-104 724,-187 724,-187"/>
    <path class="fil1 str0" d="M8502 3034c0,0 -132,-27 -247,70 -115,97 -106,247 -106,247"/>
    <path class="fil1 str0" d="M3916 3916c0,0 643,276 952,282 468,9 1015,-62 1341,-123 326,-62 1923,-441 2117,-503 194,-62 352,-150 352,-150"/>
    <path class="fil1 str0" d="M4304 3528c0,0 141,35 212,106 70,70 70,141 70,141"/>
    <line class="fil1 str0" x1="4586" y1="3775" x2="4551" y2= "3881" />
    <path class="fil1 str0" d="M4692 3669c0,0 238,26 388,35 150,9 441,-53 635,-70 194,-18 388,70 388,70"/>
    <line class="fil1 str0" x1="6103" y1="3704" x2="6209" y2= "3810" />
    <path class="fil1 str0" d="M6209 3810c0,0 -450,71 -494,71 -44,0 -353,35 -353,35"/>
    <line class="fil1 str0" x1="5362" y1="3916" x2="5292" y2= "3739" />
    <path class="fil1 str0" d="M5292 3739c0,0 0,124 -53,159 -100,67 -230,18 -230,18"/>
    <polyline class="fil1 str0" points="5009,3916 4974,3810 4727,3775 "/>
    <path class="fil1 str0" d="M2981 3625c0,0 79,-221 256,-150 67,27 194,88 317,406 124,317 159,661 150,846 -9,185 -39,272 -70,353 -115,300 -300,150 -300,150"/>
    <path class="fil1 str0" d="M4022 4727c0,0 670,247 846,282 177,36 953,-70 953,-70"/>
    <path class="fil1 str0" d="M917 2963c0,0 -2,72 -35,177 -71,220 -229,123 -229,123"/>
    <path class="fil1 str0" d="M1905 494c0,0 -141,212 -212,414 -70,203 -105,609 -105,609"/>
    <polygon class="fil1 str0" points="1446,1976 1623,2081 1623,2187 1446,2081 "/>
    <polygon class="fil1 str0" points="776,1623 953,1729 953,1834 776,1729 "/>
    <path class="fil1 str0" d="M4374 2046c0,-19 16,-35 36,-35 19,0 35,16 35,35 0,20 -16,35 -35,35 -20,0 -36,-15 -36,-35"/>
    <path class="fil1 str0" d="M5750 1870c0,-20 16,-36 36,-36 19,0 35,16 35,36 0,19 -16,35 -35,35 -20,0 -36,-16 -36,-35"/>
    <path class="fil1 str0" d="M3704 1870c0,0 432,-115 706,-141 273,-27 388,-36 388,-36"/>
    <line class="fil1 str0" x1="4798" y1="1693" x2="4833" y2= "1764" />
    <path class="fil1 str0" d="M5045 1729c0,0 378,-92 617,-113 239,-21 340,-28 340,-28"/>
    <line class="fil1 str0" x1="6002" y1="1588" x2="6032" y2= "1644" />
    <path class="fil1 str0" d="M1199 564c0,0 -125,249 -141,353 -16,104 -70,424 -70,424"/>
   </g>
   <g>
    <path class="fil1 str1" d="M3210 4392c-19,-107 -3,-194 36,-194 38,0 86,87 105,194 20,107 4,194 -35,194 -39,0 -86,-87 -106,-194"/>
    <path class="fil1 str1" d="M670 953c0,0 460,-503 600,-600 140,-98 211,-208 847,-247 635,-39 1537,-40 1905,0 529,57 754,184 917,282 163,98 727,565 917,741 190,176 375,431 529,529 154,98 551,259 882,388 332,129 802,412 1023,565 221,152 267,209 318,317 51,108 70,282 70,282"/>
    <line class="fil1 str1" x1="8678" y1="3210" x2="8784" y2= "3351" />
    <path class="fil1 str1" d="M8784 3351c0,0 50,292 35,424 -14,131 -53,338 -227,468 -115,87 -500,294 -1607,590 -773,207 -1631,353 -1904,364 -234,9 -692,-158 -953,-223 -162,-40 -231,-82 -247,-176 -17,-94 -106,-592 -177,-847 -70,-255 -108,-394 -247,-529 -138,-135 -200,-280 -353,-318 -152,-37 -254,65 -282,177 -28,111 -35,317 -35,317"/>
    <polyline class="fil1 str1" points="2787,3598 2540,3739 2646,3845 "/>
    <path class="fil1 str1" d="M2646 3845c0,0 -48,169 -71,141 -22,-27 -1669,-1139 -1669,-1139"/>
    <polyline class="fil1 str1" points="906,2847 906,2704 776,2575 "/>
    <path class="fil1 str1" d="M776 2575c0,0 70,-263 0,-352 -69,-90 -73,-274 -176,-318 -103,-44 -174,-45 -212,71 -38,115 -59,378 -59,378 0,0 -135,-186 -199,-305 -64,-118 -32,-283 -32,-283"/>
    <line class="fil1 str1" x1="98" y1="1766" x2="176" y2= "1693" />
    <path class="fil1 str1" d="M176 1693c0,0 -4,-325 38,-525 55,-261 280,-251 280,-251"/>
    <line class="fil1 str1" x1="494" y1="917" x2="670" y2= "953" />
    <path class="fil1 str1" d="M3140 2011c-146,17 -248,4 -318,-141 -70,-146 -242,-849 -282,-1059 -40,-209 78,-231 176,-247 99,-15 1845,-131 2011,-105 113,17 234,63 302,111 68,48 295,227 510,418 214,191 411,392 476,463 105,116 120,189 63,210 -116,42 -420,63 -1039,137 -439,52 -1753,195 -1899,213"/>
    <path class="fil1 str1" d="M2999 2187c0,0 92,158 211,212 119,54 1024,551 1341,776 317,225 317,353 317,353"/>
    <path class="fil1 str1" d="M1341 2963c0,0 -56,-389 -36,-740 21,-352 141,-671 141,-671 0,0 68,-432 142,-670 73,-238 282,-529 282,-529 0,0 167,57 247,106 79,48 175,83 211,176 36,93 318,1411 318,1411 0,0 -66,144 -106,247 -40,103 -31,243 -35,388 -5,145 0,917 0,917"/>
    <polyline class="fil1 str1" points="2505,3598 2434,3704 1341,2963 "/>
    <path class="fil1 str1" d="M1446 1517c0,0 70,-392 106,-564 37,-173 284,-614 284,-614"/>
    <line class="fil1 str1" x1="1836" y1="339" x2="1525" y2= "287" />
    <path class="fil1 str1" d="M1525 287c0,0 -283,178 -467,454 -97,146 -282,458 -282,458"/>
    <polyline class="fil1 str1" points="776,1199 670,1376 635,1905 706,2011 775,2188 829,2318 805,2615 1341,2963 "/>
    <path class="fil1 str1" d="M1341 2963c0,0 -74,-619 -36,-882 39,-262 141,-564 141,-564"/>
    <line class="fil1 str1" x1="776" y1="1482" x2="3986" y2= "3175" />
    <line class="fil1 str1" x1="919" y1="2364" x2="2611" y2= "3351" />
    <line class="fil1 str1" x1="176" y1="1658" x2="318" y2= "1799" />
    <path class="fil1 str1" d="M3775 3704c0,0 487,216 776,282 289,67 516,75 670,71 154,-4 1373,-194 2021,-339 797,-179 918,-275 1189,-331 228,-47 247,-177 247,-177"/>
    <path class="fil1 str1" d="M4445 4269c0,0 317,102 529,105 212,4 459,-70 459,-70"/>
    <polyline class="fil1 str1" points="5433,4304 5539,4374 5468,4480 "/>
    <path class="fil1 str1" d="M5468 4480c0,0 -286,75 -494,71 -208,-5 -388,-106 -388,-106"/>
    <line class="fil1 str1" x1="4586" y1="4445" x2="4445" y2= "4269" />
    <path class="fil1 str1" d="M7302 4339c832,-244 1129,-388 1129,-388"/>
    <polyline class="fil1 str1" points="8431,3951 8502,3986 8431,4127 8326,4198 "/>
    <path class="fil1 str1" d="M8326 4198c0,0 -234,103 -968,334 -892,220 -1396,308 -1396,308"/>
    <line class="fil1 str1" x1="5962" y1="4840" x2="5826" y2= "4777" />
    <path class="fil1 str1" d="M5826 4777c0,0 -158,-159 -10,-178 650,-84 1115,-151 1486,-260"/>
    <path class="fil1 str1" d="M4445 3422c0,0 181,72 388,106 133,22 267,30 494,0 226,-31 405,-52 600,-36 231,20 341,97 388,177 46,80 46,227 46,227 0,0 -556,127 -1081,157 -367,21 -587,-31 -764,-67 -130,-25 -232,-80 -232,-80 0,0 -42,-115 -84,-325 -46,-228 245,-159 245,-159"/>
    <path class="fil1 str1" d="M8008 3492c0,0 -3,-139 35,-282 38,-143 128,-232 283,-282 154,-50 246,-71 246,-71"/>
    <polyline class="fil1 str1" points="8809,3480 8608,3634 8608,3810 8819,3669 "/>
    <path class="fil1 str1" d="M3351 3351c0,0 -127,-11 -247,36 -84,32 -186,211 -211,423 -25,212 -23,647 70,917 93,270 219,581 424,635 205,55 473,22 564,-35 91,-57 174,-86 212,-176 37,-91 35,-142 35,-142"/>
    <path class="fil1 str1" d="M2646 3986c0,0 -36,307 35,388 71,82 212,106 212,106"/>
    <polyline class="fil1 str1" points="318,2399 318,2505 423,2611 "/>
    <path class="fil1 str1" d="M600 2046c0,0 -124,14 -141,212 -10,103 -18,432 0,599 17,168 125,518 247,530 169,16 282,0 282,0"/>
    <polyline class="fil1 str1" points="988,3387 1129,3281 1199,3069 "/>
    <path class="fil1 str1" d="M3054 4410c-54,-331 4,-615 129,-634 126,-20 271,233 325,563 53,331 -5,615 -130,634 -125,20 -270,-233 -324,-563"/>
    <path class="fil1 str1" d="M573 2739c-23,-214 2,-397 56,-410 53,-13 115,151 139,364 23,215 -2,398 -56,411 -54,12 -116,-151 -139,-365"/>
    <path class="fil1 str1" d="M811 1199c0,0 80,104 177,142 96,37 752,362 752,362"/>
    <path class="fil1 str1" d="M1940 1482c0,0 169,-19 318,0 149,18 229,72 247,176 14,82 -18,179 -82,223 -17,12 -132,101 -412,59 -143,-21 -229,-77 -247,-211 -18,-134 176,-247 176,-247"/>
    <line class="fil1 str1" x1="2258" y1="1940" x2="2646" y2= "2081" />
    <polygon class="fil1 str1" points="353,1270 494,1341 459,1693 318,1517 "/>
    <path class="fil1 str1" d="M5962 1164c0,0 132,-62 212,0 79,62 141,177 141,177"/>
    <line class="fil1 str1" x1="6315" y1="1341" x2="6244" y2= "1482" />
    <polygon class="fil1 str1" points="7126,3457 7373,3387 7373,3563 7232,3598 "/>
   </g>
  </g>
 </g>
</svg>
