<?xml version="1.0" encoding="UTF-8"?>
<!DOCTYPE svg PUBLIC "-//W3C//DTD SVG 1.1//EN" "http://www.w3.org/Graphics/SVG/1.1/DTD/svg11.dtd">
<!-- Creator: CorelDRAW X7 -->
<svg xmlns="http://www.w3.org/2000/svg" xml:space="preserve" width="89.2526mm" height="54.6804mm" version="1.1" style="shape-rendering:geometricPrecision; text-rendering:geometricPrecision; image-rendering:optimizeQuality; fill-rule:evenodd; clip-rule:evenodd"
viewBox="0 0 8925 5468"
 xmlns:xlink="http://www.w3.org/1999/xlink">
 <defs>
  <style type="text/css">
   <![CDATA[
    .str1 {stroke:#9AA1AA;stroke-width:70.56;stroke-linecap:square;stroke-linejoin:round}
    .str0 {stroke:#9AA1AA;stroke-width:35.28;stroke-linecap:square;stroke-linejoin:round}
    .fil1 {fill:none}
    .fil0 {fill:#E9C54D}
   ]]>
  </style>
 </defs>
 <g id="Слой_x0020_1">
  <metadata id="CorelCorpID_0Corel-Layer"/>
  <g id="_947659280">
   <path class="fil0" d="M8242 953c0,0 -460,-503 -600,-600 -139,-98 -211,-208 -847,-247 -636,-39 -1537,-40 -1905,0 -529,57 -754,184 -917,282 -163,98 -727,565 -917,741 -19,17 -37,35 -56,54 -50,-20 -196,-70 -262,-19 -79,62 -141,177 -141,177l98 171c-59,61 -115,113 -168,146 -155,98 -550,259 -882,388 -332,129 -802,412 -1023,565 -222,152 -267,209 -318,317 -50,108 -70,282 -70,282l-106 141c0,0 -50,292 -36,424 15,131 54,338 228,468 115,87 500,294 1607,590 773,207 1631,353 1904,364 234,9 692,-158 953,-223 162,-40 231,-82 247,-176 17,-94 106,-592 177,-847 71,-255 108,-394 247,-529 138,-135 466,-78 542,191 97,346 41,852 41,852 0,0 174,-27 222,-111 53,-91 19,-305 42,-332 22,-28 1704,-1175 1704,-1175l0 -143 130 -129c0,0 -34,-245 0,-352 37,-122 86,-156 176,-156 76,0 121,85 160,201 38,116 7,381 7,381 0,0 79,-36 131,-139 31,-61 5,-197 14,-207 97,-112 136,-212 158,-254 64,-118 32,-283 32,-283l-79 -73c0,0 5,-325 -37,-525 -55,-261 -280,-251 -280,-251l-176 36z"/>
   <g>
    <path class="fil1 str0" d="M2597 3492c0,0 -476,-97 -882,-176 -405,-79 -741,-176 -741,-176"/>
    <path class="fil1 str0" d="M2527 3598c0,0 -406,-61 -812,-141 -405,-79 -705,-176 -705,-176"/>
    <path class="fil1 str0" d="M2456 3704c0,0 -326,-43 -722,-130 -471,-104 -724,-187 -724,-187"/>
    <path class="fil1 str0" d="M410 3034c0,0 132,-27 247,70 115,97 106,247 106,247"/>
    <path class="fil1 str0" d="M4996 3916c0,0 -643,276 -952,282 -468,9 -1015,-62 -1341,-123 -326,-62 -1923,-441 -2117,-503 -194,-62 -352,-150 -352,-150"/>
    <path class="fil1 str0" d="M4608 3528c0,0 -141,35 -212,106 -70,70 -70,141 -70,141"/>
    <line class="fil1 str0" x1="4326" y1="3775" x2="4361" y2= "3881" />
    <path class="fil1 str0" d="M4220 3669c0,0 -238,26 -388,35 -150,9 -441,-53 -635,-70 -194,-18 -388,70 -388,70"/>
    <line class="fil1 str0" x1="2809" y1="3704" x2="2703" y2= "3810" />
    <path class="fil1 str0" d="M2703 3810c0,0 450,71 494,71 44,0 353,35 353,35"/>
    <line class="fil1 str0" x1="3550" y1="3916" x2="3620" y2= "3739" />
    <path class="fil1 str0" d="M3620 3739c0,0 0,124 53,159 100,67 229,18 229,18"/>
    <polyline class="fil1 str0" points="3902,3916 3938,3810 4185,3775 "/>
    <path class="fil1 str0" d="M5931 3625c0,0 -79,-221 -256,-150 -67,27 -194,88 -317,406 -124,317 -159,661 -150,846 9,185 39,272 70,353 115,300 300,150 300,150"/>
    <path class="fil1 str0" d="M4890 4727c0,0 -670,247 -846,282 -177,36 -953,-70 -953,-70"/>
    <path class="fil1 str0" d="M7995 2963c0,0 1,72 35,177 70,220 229,123 229,123"/>
    <path class="fil1 str0" d="M7007 494c0,0 141,212 212,414 70,203 105,609 105,609"/>
    <polygon class="fil1 str0" points="7465,1976 7289,2081 7289,2187 7465,2081 "/>
    <polygon class="fil1 str0" points="8136,1623 7959,1729 7959,1834 8136,1729 "/>
    <path class="fil1 str0" d="M4537 2046c0,-19 -15,-35 -35,-35 -19,0 -35,16 -35,35 0,20 16,35 35,35 20,0 35,-15 35,-35"/>
    <path class="fil1 str0" d="M3162 1870c0,-20 -16,-36 -36,-36 -19,0 -35,16 -35,36 0,19 16,35 35,35 20,0 36,-16 36,-35"/>
    <path class="fil1 str0" d="M5208 1870c0,0 -432,-115 -706,-141 -273,-27 -388,-36 -388,-36"/>
    <line class="fil1 str0" x1="4114" y1="1693" x2="4079" y2= "1764" />
    <path class="fil1 str0" d="M3867 1729c0,0 -378,-92 -617,-113 -239,-21 -340,-28 -340,-28"/>
    <line class="fil1 str0" x1="2910" y1="1588" x2="2879" y2= "1644" />
    <path class="fil1 str0" d="M7712 564c0,0 126,249 142,353 16,104 70,424 70,424"/>
   </g>
   <g>
    <path class="fil1 str1" d="M5702 4392c19,-107 3,-194 -36,-194 -38,0 -86,87 -106,194 -19,107 -3,194 36,194 39,0 86,-87 106,-194"/>
    <path class="fil1 str1" d="M8242 953c0,0 -460,-503 -600,-600 -139,-98 -211,-208 -847,-247 -636,-39 -1537,-40 -1905,0 -529,57 -754,184 -917,282 -163,98 -727,565 -917,741 -190,176 -375,431 -529,529 -155,98 -550,259 -882,388 -332,129 -802,412 -1023,565 -222,152 -267,209 -318,317 -50,108 -70,282 -70,282"/>
    <line class="fil1 str1" x1="234" y1="3210" x2="128" y2= "3351" />
    <path class="fil1 str1" d="M128 3351c0,0 -50,292 -36,424 15,131 54,338 228,468 115,87 500,294 1607,590 773,207 1631,353 1904,364 234,9 692,-158 953,-223 162,-40 231,-82 247,-176 17,-94 106,-592 177,-847 71,-255 108,-394 247,-529 138,-135 200,-280 352,-318 153,-37 255,65 283,177 28,111 35,317 35,317"/>
    <polyline class="fil1 str1" points="6125,3598 6372,3739 6266,3845 "/>
    <path class="fil1 str1" d="M6266 3845c0,0 48,169 71,141 22,-27 1669,-1139 1669,-1139"/>
    <polyline class="fil1 str1" points="8006,2847 8006,2704 8136,2575 "/>
    <path class="fil1 str1" d="M8136 2575c0,0 -70,-263 0,-352 69,-90 73,-274 176,-318 103,-44 174,-45 212,71 38,115 59,378 59,378 0,0 136,-186 199,-305 64,-118 32,-283 32,-283"/>
    <line class="fil1 str1" x1="8814" y1="1766" x2="8735" y2= "1693" />
    <path class="fil1 str1" d="M8735 1693c0,0 5,-325 -37,-525 -55,-261 -280,-251 -280,-251"/>
    <line class="fil1 str1" x1="8418" y1="917" x2="8242" y2= "953" />
    <path class="fil1 str1" d="M5772 2011c147,17 248,4 318,-141 69,-146 242,-849 282,-1059 39,-209 -77,-231 -177,-247 -98,-15 -1844,-131 -2010,-105 -113,17 -234,63 -302,111 -68,48 -296,227 -510,418 -214,191 -411,392 -476,463 -105,116 -120,189 -63,210 116,42 420,63 1039,137 439,52 1753,195 1899,213"/>
    <path class="fil1 str1" d="M5913 2187c0,0 -92,158 -211,212 -119,54 -1024,551 -1341,776 -317,225 -317,353 -317,353"/>
    <path class="fil1 str1" d="M7571 2963c0,0 56,-389 36,-740 -21,-352 -142,-671 -142,-671 0,0 -67,-432 -141,-670 -73,-238 -282,-529 -282,-529 0,0 -167,57 -247,106 -79,48 -175,83 -211,176 -36,93 -318,1411 -318,1411 0,0 66,144 106,247 39,103 31,243 35,388 4,145 0,917 0,917"/>
    <polyline class="fil1 str1" points="6407,3598 6478,3704 7571,2963 "/>
    <path class="fil1 str1" d="M7465 1517c0,0 -69,-392 -105,-564 -37,-173 -284,-614 -284,-614"/>
    <line class="fil1 str1" x1="7076" y1="339" x2="7387" y2= "287" />
    <path class="fil1 str1" d="M7387 287c0,0 283,178 467,454 97,146 282,458 282,458"/>
    <polyline class="fil1 str1" points="8136,1199 8242,1376 8277,1905 8206,2011 8137,2188 8083,2318 8108,2615 7571,2963 "/>
    <path class="fil1 str1" d="M7571 2963c0,0 74,-619 36,-882 -39,-262 -142,-564 -142,-564"/>
    <line class="fil1 str1" x1="8136" y1="1482" x2="4925" y2= "3175" />
    <line class="fil1 str1" x1="7993" y1="2364" x2="6301" y2= "3351" />
    <line class="fil1 str1" x1="8735" y1="1658" x2="8594" y2= "1799" />
    <path class="fil1 str1" d="M5137 3704c0,0 -487,216 -776,282 -289,67 -516,75 -670,71 -154,-4 -1373,-194 -2021,-339 -798,-179 -918,-275 -1190,-331 -226,-47 -246,-177 -246,-177"/>
    <path class="fil1 str1" d="M4467 4269c0,0 -317,102 -529,105 -212,4 -459,-70 -459,-70"/>
    <polyline class="fil1 str1" points="3479,4304 3373,4374 3444,4480 "/>
    <path class="fil1 str1" d="M3444 4480c0,0 286,75 494,71 207,-5 388,-106 388,-106"/>
    <line class="fil1 str1" x1="4326" y1="4445" x2="4467" y2= "4269" />
    <path class="fil1 str1" d="M1609 4339c-831,-244 -1129,-388 -1129,-388"/>
    <polyline class="fil1 str1" points="480,3951 410,3986 480,4127 586,4198 "/>
    <path class="fil1 str1" d="M586 4198c0,0 234,103 968,334 892,220 1396,308 1396,308"/>
    <line class="fil1 str1" x1="2950" y1="4840" x2="3086" y2= "4777" />
    <path class="fil1 str1" d="M3086 4777c0,0 157,-159 10,-178 -650,-84 -1115,-151 -1487,-260"/>
    <path class="fil1 str1" d="M4467 3422c0,0 -181,72 -388,106 -133,22 -268,30 -494,0 -226,-31 -405,-52 -600,-36 -231,20 -341,97 -388,177 -46,80 -46,227 -46,227 0,0 556,127 1080,157 368,21 588,-31 765,-67 130,-25 232,-80 232,-80 0,0 42,-115 84,-325 46,-228 -245,-159 -245,-159"/>
    <path class="fil1 str1" d="M904 3492c0,0 3,-139 -35,-282 -39,-143 -128,-232 -283,-282 -154,-50 -247,-71 -247,-71"/>
    <polyline class="fil1 str1" points="103,3480 304,3634 304,3810 92,3669 "/>
    <path class="fil1 str1" d="M5560 3351c0,0 127,-11 247,36 84,32 187,211 212,423 25,212 23,647 -70,917 -94,270 -219,581 -424,635 -204,55 -473,22 -564,-35 -92,-57 -175,-86 -212,-176 -37,-91 -35,-142 -35,-142"/>
    <path class="fil1 str1" d="M6266 3986c0,0 36,307 -35,388 -72,82 -212,106 -212,106"/>
    <polyline class="fil1 str1" points="8594,2399 8594,2505 8489,2611 "/>
    <path class="fil1 str1" d="M8312 2046c0,0 124,14 141,212 9,103 18,432 0,599 -17,168 -125,518 -247,530 -169,16 -282,0 -282,0"/>
    <polyline class="fil1 str1" points="7924,3387 7783,3281 7712,3069 "/>
    <path class="fil1 str1" d="M5858 4410c54,-331 -4,-615 -130,-634 -125,-20 -270,233 -324,563 -53,331 4,615 130,634 125,20 270,-233 324,-563"/>
    <path class="fil1 str1" d="M8339 2739c23,-214 -2,-397 -56,-410 -53,-13 -115,151 -138,364 -24,215 1,398 55,411 54,12 116,-151 139,-365"/>
    <path class="fil1 str1" d="M8100 1199c0,0 -79,104 -176,142 -96,37 -752,362 -752,362"/>
    <path class="fil1 str1" d="M6972 1482c0,0 -169,-19 -318,0 -149,18 -229,72 -247,176 -14,82 17,179 82,223 17,12 132,101 412,59 144,-21 229,-77 247,-211 18,-134 -176,-247 -176,-247"/>
    <line class="fil1 str1" x1="6654" y1="1940" x2="6266" y2= "2081" />
    <polygon class="fil1 str1" points="8559,1270 8418,1341 8453,1693 8594,1517 "/>
    <path class="fil1 str1" d="M2950 1164c0,0 -132,-62 -212,0 -79,62 -141,177 -141,177"/>
    <line class="fil1 str1" x1="2597" y1="1341" x2="2668" y2= "1482" />
    <polygon class="fil1 str1" points="1786,3457 1539,3387 1539,3563 1680,3598 "/>
   </g>
  </g>
 </g>
</svg>
