<?xml version="1.0" encoding="UTF-8"?>
<!DOCTYPE svg PUBLIC "-//W3C//DTD SVG 1.1//EN" "http://www.w3.org/Graphics/SVG/1.1/DTD/svg11.dtd">
<!-- Creator: CorelDRAW X7 -->
<svg xmlns="http://www.w3.org/2000/svg" xml:space="preserve" width="101.247mm" height="47.6248mm" version="1.1" style="shape-rendering:geometricPrecision; text-rendering:geometricPrecision; image-rendering:optimizeQuality; fill-rule:evenodd; clip-rule:evenodd"
viewBox="0 0 10125 4762"
 xmlns:xlink="http://www.w3.org/1999/xlink">
 <defs>
  <style type="text/css">
   <![CDATA[
    .str1 {stroke:#9AA1AA;stroke-width:70.56;stroke-linejoin:round}
    .str0 {stroke:#9AA1AA;stroke-width:70.56;stroke-linecap:square;stroke-linejoin:round}
    .str2 {stroke:#9AA1AA;stroke-width:35.28;stroke-linecap:square;stroke-linejoin:round}
    .fil1 {fill:none}
    .fil0 {fill:#E9C54D}
    .fil2 {fill:white}
   ]]>
  </style>
 </defs>
 <g id="Слой_x0020_1">
  <metadata id="CorelCorpID_0Corel-Layer"/>
  <g id="_913514352">
   <path class="fil0" d="M6421 4022l-177 -36 -458 -529c0,0 214,-1100 246,-1376 33,-275 168,-494 353,-529 185,-34 786,-75 1129,-70 344,5 882,-106 882,-106l1446 317 71 177 35 599 71 177 70 141 -35 388 -141 212c0,0 -93,82 -106,105 -12,24 -282,106 -282,106 0,0 -331,154 -706,247 -374,94 -684,215 -987,247 -304,32 -1411,-70 -1411,-70z"/>
   <g>
    <g>
     <path class="fil1 str0" d="M388 2575c0,0 -217,-108 -282,-282 -65,-174 -2,-513 70,-670 72,-158 314,-325 600,-353 286,-28 741,-35 741,-35"/>
     <polyline class="fil1 str0" points="1517,1235 1729,953 1976,953 "/>
     <path class="fil1 str0" d="M1976 953c0,0 246,-282 599,-459 354,-178 484,-239 741,-318 219,-67 504,-87 777,-99 367,-16 798,16 1165,32 574,25 941,48 1339,103 271,37 521,170 811,352 291,183 847,635 847,635"/>
     <polyline class="fil1 str0" points="8255,1199 8431,1411 9807,1693 9913,1870 9913,2222 9948,2540 10054,2752 10054,3175 9807,3492 9596,3598 "/>
     <path class="fil1 str0" d="M9596 3598c0,0 -512,177 -918,283 -405,105 -727,174 -917,211 -190,37 -1340,-70 -1340,-70 0,0 -95,98 -212,208 -118,110 -329,171 -329,171"/>
     <polyline class="fil1 str0" points="5880,4401 5816,4225 5750,3387 "/>
     <path class="fil1 str0" d="M5750 3387c0,0 -61,-406 -333,-614 -222,-170 -431,-214 -606,-159 -174,54 -337,237 -399,415 -61,176 -38,640 -38,640"/>
     <polyline class="fil1 str0" points="4374,3669 1658,2999 1305,3104 1164,2999 "/>
     <path class="fil1 str0" d="M1164 2999c0,0 -30,-536 -106,-812 -76,-275 -221,-489 -388,-494 -166,-5 -291,143 -317,318 -41,268 35,564 35,564"/>
     <path class="fil1 str0" d="M7056 388c0,0 -522,-24 -1270,0 -179,6 -318,71 -318,71"/>
     <line class="fil1 str0" x1="5468" y1="459" x2="5433" y2= "529" />
     <path class="fil1 str0" d="M5433 529c0,0 178,291 353,494 174,203 458,459 458,459 0,0 148,47 418,47 319,0 576,-31 958,-47 382,-17 776,-106 776,-106 0,0 -203,-246 -635,-565 -362,-267 -705,-423 -705,-423"/>
     <path class="fil1 str0" d="M1552 2822c0,0 -215,-209 -235,-480 -19,-270 -10,-436 59,-649 69,-212 247,-423 247,-423"/>
     <line class="fil1 str0" x1="1623" y1="1270" x2="1870" y2= "1305" />
     <path class="fil1 str0" d="M1870 1305c0,0 236,-418 599,-599 364,-182 580,-355 847,-388 267,-34 459,-36 459,-36 0,0 -211,275 -353,529 -142,255 -247,600 -247,600 0,0 -154,221 -176,353 -23,132 -55,472 -71,741 -15,268 0,458 0,458"/>
     <polyline class="fil1 str0" points="2928,2963 3069,3210 1552,2822 "/>
     <path class="fil2 str1" d="M1588 1305c0,0 273,0 352,0 79,1 215,-354 215,-354l-412 5 -208 273 53 76z"/>
     <path class="fil1 str0" d="M3810 282c0,0 799,56 953,71 153,15 240,89 317,176 77,88 172,398 212,494 39,96 21,298 -36,388 -56,90 -186,103 -247,282 -60,180 -128,361 -176,494 -48,133 -5,164 -141,247 -136,83 -248,149 -318,247 -69,98 -123,251 -135,469 -11,197 -6,342 -6,342"/>
     <line class="fil1 str0" x1="4233" y1="3492" x2="3069" y2= "3210" />
     <path class="fil1 str0" d="M2081 1305c0,0 557,113 1341,177 784,63 1587,106 1587,106"/>
     <line class="fil1 str0" x1="1199" y1="2117" x2="4233" y2= "2681" />
     <path class="fil1 str0" d="M423 1552c0,0 140,-68 247,-70 107,-2 1870,176 1870,176"/>
     <line class="fil1 str0" x1="3175" y1="1729" x2="4374" y2= "1870" />
     <line class="fil1 str0" x1="5080" y1="1976" x2="5433" y2= "2011" />
     <path class="fil1 str0" d="M5644 2011c80,1 174,23 247,35 73,12 131,138 106,212 -24,73 -27,218 -35,282 -9,64 -66,93 -141,106 -75,13 -190,-29 -247,-35 -57,-7 -100,-63 -106,-177 -6,-114 22,-210 35,-282 14,-72 62,-143 141,-141"/>
     <line class="fil1 str0" x1="6138" y1="2081" x2="7232" y2= "2258" />
     <path class="fil1 str0" d="M5715 2857c0,0 1244,299 1587,318 344,19 2032,-288 2258,-353 227,-65 388,-211 388,-211"/>
     <path class="fil1 str0" d="M6914 3034c0,0 161,-448 283,-565 122,-116 168,-192 352,-176 185,16 423,49 812,0 388,-49 1097,-167 1305,-212 208,-44 282,-105 282,-105"/>
     <path class="fil1 str0" d="M6385 1588c0,0 76,63 106,70 30,7 1341,176 1341,176"/>
     <polyline class="fil1 str0" points="7832,1834 7902,1905 7902,2293 "/>
     <line class="fil1 str0" x1="8361" y1="2328" x2="8326" y2= "3034" />
     <line class="fil1 str0" x1="9666" y1="2081" x2="9666" y2= "2752" />
     <polyline class="fil1 str0" points="8819,3810 8819,3351 8925,3246 9454,3104 9525,3210 9525,3563 9525,3634 "/>
     <path class="fil1 str0" d="M5432 2817c0,0 -221,-60 -439,-49 -191,10 -430,181 -477,336 -48,156 -109,278 -102,560 6,281 98,666 243,781 154,123 342,223 532,223 219,0 391,-57 391,-57"/>
     <line class="fil1 str0" x1="5580" y1="4611" x2="5856" y2= "4374" />
     <path class="fil1 str0" d="M917 1905c0,0 -146,-17 -247,35 -100,53 -170,103 -211,247 -42,144 -68,406 0,635 67,230 228,426 388,459 159,33 204,21 317,0 113,-21 318,-212 318,-212"/>
     <path class="fil1 str0" d="M4625 3810c-39,-331 94,-615 297,-634 202,-19 398,233 436,563 39,331 -93,615 -296,634 -202,20 -398,-232 -437,-563"/>
     <path class="fil1 str0" d="M564 2611c-19,-215 52,-389 159,-389 107,0 210,174 230,389 19,214 -52,388 -159,388 -107,0 -210,-174 -230,-388"/>
     <path class="fil1 str0" d="M8961 1940c0,-58 55,-106 123,-106 68,0 123,48 123,106 0,59 -55,106 -123,106 -68,0 -123,-47 -123,-106"/>
     <path class="fil1 str0" d="M4868 3775c0,-98 48,-177 106,-177 59,0 106,79 106,177 0,97 -47,176 -106,176 -58,0 -106,-79 -106,-176"/>
     <path class="fil1 str0" d="M706 2611c0,-59 15,-106 35,-106 19,0 35,47 35,106 0,58 -16,105 -35,105 -20,0 -35,-47 -35,-105"/>
    </g>
    <g>
     <polygon class="fil1 str2" points="2646,1658 2893,1693 2858,1834 2611,1799 "/>
     <polygon class="fil1 str2" points="4516,1870 4798,1905 4727,2081 4410,2046 "/>
     <path class="fil1 str2" d="M3916 318c0,0 -206,257 -318,458 -163,295 -258,719 -258,719"/>
     <path class="fil1 str2" d="M4763 353c0,0 155,134 246,317 92,184 153,321 177,459 24,138 -106,423 -106,423"/>
     <line class="fil1 str2" x1="4586" y1="1552" x2="4974" y2= "670" />
     <path class="fil1 str2" d="M4904 247c0,0 171,34 282,71 111,36 176,70 176,70"/>
     <line class="fil1 str2" x1="1446" y1="2611" x2="4198" y2= "3246" />
     <path class="fil1 str2" d="M706 1940c144,12 194,106 247,247 82,222 136,385 136,635 0,225 -104,331 -177,397 -72,65 -236,-49 -236,-49"/>
     <path class="fil1 str2" d="M4692 3034c0,0 117,-92 317,-71 201,22 294,141 388,283 95,141 160,269 177,493 16,224 27,405 -71,565 -97,160 -243,263 -317,282 -74,19 -177,0 -177,0"/>
     <path class="fil1 str2" d="M5151 2857c0,0 152,47 246,142 95,94 142,211 142,211"/>
     <path class="fil1 str2" d="M5699 4126c0,0 8,151 -98,305 -120,174 -315,215 -315,215"/>
     <polyline class="fil1 str2" points="5786,3457 6209,3986 6421,4022 "/>
     <path class="fil1 str2" d="M6034 3779c0,0 904,108 1692,137 202,7 1080,-234 1080,-234"/>
     <line class="fil1 str2" x1="9560" y1="3457" x2="9948" y2= "3246" />
     <path class="fil1 str2" d="M7373 3246c0,0 291,37 494,35 202,-3 1076,-159 1425,-251 554,-146 759,-301 759,-301"/>
     <path class="fil1 str2" d="M6960 2931c0,0 239,43 448,68 452,53 1716,-199 2258,-353 203,-58 282,-141 282,-141"/>
     <path class="fil1 str2" d="M7161 2540c0,0 324,67 671,71 520,4 1637,-205 1834,-247 197,-42 247,-106 247,-106"/>
     <path class="fil1 str2" d="M7585 2258c0,0 29,-86 93,-206 58,-110 133,-167 259,-182 350,-43 533,-82 1122,-157 511,-66 713,-20 713,-20"/>
    </g>
   </g>
  </g>
 </g>
</svg>
